<?xml version="1.0" standalone="no"?>
<!DOCTYPE svg PUBLIC "-//W3C//DTD SVG 20010904//EN"
 "http://www.w3.org/TR/2001/REC-SVG-20010904/DTD/svg10.dtd">
<svg version="1.0" xmlns="http://www.w3.org/2000/svg"
 width="446.000000pt" height="110.000000pt" viewBox="0 0 446.000000 110.000000"
 preserveAspectRatio="xMidYMid meet">

<g transform="translate(0.000000,110.000000) scale(0.100000,-0.100000)"
fill="#000000" stroke="none">
<path d="M530 805 c-79 -36 -121 -106 -100 -169 14 -44 40 -67 127 -110 39
-19 79 -46 87 -58 42 -60 0 -128 -80 -128 -60 0 -96 22 -125 79 l-24 46 -3
-59 c-2 -32 1 -63 5 -67 18 -18 135 -40 176 -34 130 21 192 133 126 226 -10
15 -55 45 -98 68 -112 58 -135 98 -90 155 41 52 127 29 169 -46 28 -49 37 -36
25 37 -5 37 -11 45 -36 54 -57 20 -122 22 -159 6z"/>
<path d="M2634 795 c11 -8 26 -15 34 -15 23 0 9 -420 -14 -435 -52 -34 -52
-34 41 -34 l90 0 -39 20 -39 21 7 81 c3 45 6 127 6 182 0 58 4 95 9 90 5 -6
46 -97 91 -203 72 -168 85 -193 103 -190 17 2 38 43 106 203 l86 200 6 -70 c4
-38 7 -121 8 -182 l1 -112 -30 -16 c-16 -9 -30 -18 -30 -20 0 -3 46 -5 103 -5
l102 0 -27 23 c-31 26 -37 66 -39 291 l-2 149 34 18 34 18 -81 1 -81 0 -77
-175 c-42 -97 -76 -180 -76 -185 0 -36 -27 13 -96 173 l-80 182 -84 2 c-77 3
-83 2 -66 -12z"/>
<path d="M953 715 c-72 -36 -106 -89 -111 -170 -2 -35 1 -79 8 -99 58 -177
327 -192 406 -23 92 199 -106 390 -303 292z m157 -28 c50 -33 72 -78 78 -156
6 -83 -9 -132 -49 -166 -39 -32 -104 -34 -142 -5 -78 61 -94 241 -29 314 37
41 94 46 142 13z"/>
<path d="M1520 719 c-91 -41 -140 -112 -140 -203 0 -91 33 -146 115 -189 51
-26 172 -29 228 -4 36 16 37 17 37 68 l0 52 -32 -44 c-42 -59 -44 -60 -115
-56 -50 2 -68 8 -89 27 -106 100 -62 311 70 335 56 11 97 -9 129 -61 15 -26
30 -44 33 -41 3 2 2 28 -2 57 -6 47 -10 54 -40 66 -49 21 -141 17 -194 -7z"/>
<path d="M3461 543 c-46 -109 -93 -206 -105 -215 -20 -17 -19 -18 49 -17 68 0
69 0 43 15 -16 8 -28 17 -28 20 0 3 10 28 21 55 l21 49 83 0 82 0 20 -52 21
-53 -24 -13 c-13 -7 -24 -15 -24 -17 0 -3 42 -5 93 -5 l92 0 -25 19 c-16 13
-51 83 -106 213 -110 262 -102 262 -213 1z m117 20 l31 -73 -64 0 c-36 0 -65
2 -65 4 0 2 9 26 21 53 11 26 25 59 30 72 5 13 11 22 13 20 2 -2 18 -37 34
-76z"/>
<path d="M1893 714 l27 -15 0 -177 0 -177 -27 -17 c-28 -17 -26 -17 72 -17 90
0 98 1 81 14 -11 8 -23 15 -28 15 -4 0 -8 81 -8 180 l0 179 28 15 c25 14 21
15 -73 15 -94 0 -98 -1 -72 -15z"/>
<path d="M2178 714 l32 -14 0 -178 0 -178 -32 -17 c-32 -15 -25 -16 155 -16
l187 -1 0 65 c0 36 -2 65 -5 65 -2 0 -16 -23 -30 -50 l-26 -51 -82 3 -82 3 -3
83 -3 82 58 0 c53 0 60 -3 75 -27 17 -28 17 -28 17 47 0 69 -1 73 -13 50 -12
-21 -24 -26 -71 -30 -38 -4 -59 -2 -62 6 -2 6 -3 40 -1 75 l3 64 76 3 75 3 19
-36 c11 -19 23 -35 27 -35 5 0 8 23 8 50 l0 50 -177 -1 c-163 -1 -175 -2 -145
-15z"/>
<path d="M3893 714 l27 -15 0 -179 c0 -99 -4 -180 -8 -180 -5 0 -17 -7 -28
-15 -17 -13 -11 -14 66 -14 l85 1 -37 16 -38 17 0 143 c0 78 1 142 3 142 2 0
66 -72 142 -160 104 -118 146 -160 162 -160 l23 0 0 195 0 194 28 15 c26 14
23 15 -58 15 -80 -1 -83 -1 -50 -13 l35 -13 2 -134 3 -134 -45 50 c-25 28 -82
94 -127 147 l-83 97 -65 0 c-63 0 -64 0 -37 -15z"/>
</g>
</svg>
